<svg width="1670" height="1034" version="1.1" xmlns="http://www.w3.org/2000/svg" style="width: 1883.33px; height: 1155.56px;"><g transform="translate(100,200.3195513639638) scale(0.7348672401405871)"><path class="link" d="M1314.2309657639244,875.625L1314.2309657639244,846.4375L1367.562595809913,846.4375" id="node_5748:node_9425" style="fill: none; stroke-width: 3; stroke: grey; cursor: pointer;"></path><path class="link" d="M1314.2309657639244,875.625L1314.2309657639244,904.8125L1378.8298415942768,904.8125" id="node_5748:node_6111" style="fill: none; stroke-width: 3; stroke: grey; cursor: pointer;"></path><path class="link" d="M1161.7475728155339,700.5L1161.7475728155339,671.3125L1445.682166581502,671.3125" id="node_5378:node_5388" style="fill: none; stroke-width: 3; stroke: grey; cursor: pointer;"></path><path class="link" d="M1161.7475728155339,700.5L1161.7475728155339,729.6875L1489.9999999999998,729.6875" id="node_5378:node_4378" style="fill: none; stroke-width: 3; stroke: grey; cursor: pointer;"></path><path class="link" d="M463.9294839039345,744.28125L463.9294839039345,700.5L1161.7475728155339,700.5" id="node_1171:node_5378" style="fill: none; stroke-width: 3; stroke: grey; cursor: pointer;"></path><path class="link" d="M463.9294839039345,744.28125L463.9294839039345,788.0625L1412.631578947368,788.0625" id="node_1171:node_1199" style="fill: none; stroke-width: 3; stroke: grey; cursor: pointer;"></path><path class="link" d="M269.3817066939192,809.953125L269.3817066939192,744.28125L463.9294839039345,744.28125" id="node_6121:node_1171" style="fill: none; stroke-width: 3; stroke: grey; cursor: pointer;"></path><path class="link" d="M269.3817066939192,809.953125L269.3817066939192,875.625L1314.2309657639244,875.625" id="node_6121:node_5748" style="fill: none; stroke-width: 3; stroke: grey; cursor: pointer;"></path><path class="link" d="M463.9294839039345,583.75L463.9294839039345,554.5625L955.1814001021971,554.5625" id="node_3288:node_4571" style="fill: none; stroke-width: 3; stroke: grey; cursor: pointer;"></path><path class="link" d="M463.9294839039345,583.75L463.9294839039345,612.9375L1087.3837506387326,612.9375" id="node_3288:node_4106" style="fill: none; stroke-width: 3; stroke: grey; cursor: pointer;"></path><path class="link" d="M198.02248339294832,696.8515625L198.02248339294832,583.75L463.9294839039345,583.75" id="node_4233:node_3288" style="fill: none; stroke-width: 3; stroke: grey; cursor: pointer;"></path><path class="link" d="M198.02248339294832,696.8515625L198.02248339294832,809.953125L269.3817066939192,809.953125" id="node_4233:node_6121" style="fill: none; stroke-width: 3; stroke: grey; cursor: pointer;"></path><path class="link" d="M928.1400102197239,467L928.1400102197239,437.8125L928.1400102197239,437.8125" id="node_1748:node_6765" style="fill: none; stroke-width: 3; stroke: grey; cursor: pointer;"></path><path class="link" d="M928.1400102197239,467L928.1400102197239,496.1875L928.1400102197239,496.1875" id="node_1748:node_9669" style="fill: none; stroke-width: 3; stroke: grey; cursor: pointer;"></path><path class="link" d="M931.1446090955543,350.25L931.1446090955543,321.0625L977.7158916709249,321.0625" id="node_2787:node_7689" style="fill: none; stroke-width: 3; stroke: grey; cursor: pointer;"></path><path class="link" d="M931.1446090955543,350.25L931.1446090955543,379.4375L1001.00153295861,379.4375" id="node_2787:node_1065" style="fill: none; stroke-width: 3; stroke: grey; cursor: pointer;"></path><path class="link" d="M693.0301481859988,408.625L693.0301481859988,350.25L931.1446090955543,350.25" id="node_6588:node_2787" style="fill: none; stroke-width: 3; stroke: grey; cursor: pointer;"></path><path class="link" d="M693.0301481859988,408.625L693.0301481859988,467L928.1400102197239,467" id="node_6588:node_1748" style="fill: none; stroke-width: 3; stroke: grey; cursor: pointer;"></path><path class="link" d="M134.17475728155333,552.73828125L134.17475728155333,408.625L693.0301481859988,408.625" id="node_2101:node_6588" style="fill: none; stroke-width: 3; stroke: grey; cursor: pointer;"></path><path class="link" d="M134.17475728155333,552.73828125L134.17475728155333,696.8515625L198.02248339294832,696.8515625" id="node_2101:node_4233" style="fill: none; stroke-width: 3; stroke: grey; cursor: pointer;"></path><path class="link" d="M1015.2733776188043,116.75L1015.2733776188043,87.5625L1361.5533980582525,87.5625" id="node_1333:node_8734" style="fill: none; stroke-width: 3; stroke: grey; cursor: pointer;"></path><path class="link" d="M1015.2733776188043,116.75L1015.2733776188043,145.9375L1490,145.9375" id="node_1333:node_1348" style="fill: none; stroke-width: 3; stroke: grey; cursor: pointer;"></path><path class="link" d="M710.3065917220235,160.53125L710.3065917220235,116.75L1015.2733776188043,116.75" id="node_9353:node_1333" style="fill: none; stroke-width: 3; stroke: grey; cursor: pointer;"></path><path class="link" d="M710.3065917220235,160.53125L710.3065917220235,204.3125L1483.9908022483394,204.3125" id="node_9353:node_3364" style="fill: none; stroke-width: 3; stroke: grey; cursor: pointer;"></path><path class="link" d="M592.3760858456822,94.859375L592.3760858456822,29.1875L1216.5815022994377,29.1875" id="node_8879:node_6897" style="fill: none; stroke-width: 3; stroke: grey; cursor: pointer;"></path><path class="link" d="M592.3760858456822,94.859375L592.3760858456822,160.53125L710.3065917220235,160.53125" id="node_8879:node_9353" style="fill: none; stroke-width: 3; stroke: grey; cursor: pointer;"></path><path class="link" d="M33.52069494123666,178.7734375L33.52069494123666,94.859375L592.3760858456822,94.859375" id="node_1905:node_8879" style="fill: none; stroke-width: 3; stroke: grey; cursor: pointer;"></path><path class="link" d="M33.52069494123666,178.7734375L33.52069494123666,262.6875L1310.4752171691364,262.6875" id="node_1905:node_5495" style="fill: none; stroke-width: 3; stroke: grey; cursor: pointer;"></path><path class="link" d="M20,365.755859375L20,178.7734375L33.52069494123666,178.7734375" id="node_5745:node_1905" style="fill: none; stroke-width: 3; stroke: grey; cursor: pointer;"></path><path class="link" d="M20,365.755859375L20,552.73828125L134.17475728155333,552.73828125" id="node_5745:node_2101" style="fill: none; stroke-width: 3; stroke: grey; cursor: pointer;"></path><g class="node" transform="translate(1378.829833984375,904.8125)" id="node_6111" style="cursor: crosshair;"><circle class="node" r="4" style="fill: black;"></circle><rect class="node" y="-4px" x="-4px" width="0px" height="0px" style="stroke-width: 2px; stroke: black;"></rect><text x="13" dy=".3em" dx="-.3em" text-anchor="start" font-size="14px" style="fill-opacity: 1; font-family: sans-serif; font-weight: normal; fill: black;">9_P35747_1_RecName__Full=Albumin__AltName__Allergen=Equ_c_3__Flags__Precursor__Equus_caballus</text><text class="triangleText" dy=".35em" font-size="14px" style="fill-opacity: 1e-06; font-family: sans-serif;"></text><path d="M0,0L0,0L0,0L0,0"></path></g><g class="node" transform="translate(1367.5626220703125,846.4375)" id="node_9425" style="cursor: crosshair;"><circle class="node" r="4" style="fill: black;"></circle><rect class="node" y="-4px" x="-4px" width="0px" height="0px" style="stroke-width: 2px; stroke: black;"></rect><text x="13" dy=".3em" dx="-.3em" text-anchor="start" font-size="14px" style="fill-opacity: 1; font-family: sans-serif; font-weight: normal; fill: black;">8_Q5XLE4_1_RecName__Full=Albumin__Flags__Precursor__Equus_asinus</text><text class="triangleText" dy=".35em" font-size="14px" style="fill-opacity: 1e-06; font-family: sans-serif;"></text><path d="M0,0L0,0L0,0L0,0"></path></g><g class="node" transform="translate(1314.23095703125,875.625)" id="node_5748" style="cursor: crosshair;"><circle class="node" r="4" style="fill: black;"></circle><rect class="node" y="-4px" x="-4px" width="0px" height="0px" style="stroke-width: 2px; stroke: black;"></rect><text x="-13" dy="-.3em" dx=".3em" text-anchor="end" font-size="14px" style="fill-opacity: 1; font-family: sans-serif; font-weight: normal;"></text><text class="triangleText" dy=".35em" font-size="14px" style="fill-opacity: 1e-06; font-family: sans-serif;" x="0"></text><path d="M0,0L0,0L0,0L0,0"></path></g><g class="node" transform="translate(1412.631591796875,788.0625)" id="node_1199" style="cursor: crosshair;"><circle class="node" r="4" style="fill: black;"></circle><rect class="node" y="-4px" x="-4px" width="0px" height="0px" style="stroke-width: 2px; stroke: black;"></rect><text x="13" dy=".3em" dx="-.3em" text-anchor="start" font-size="14px" style="fill-opacity: 1; font-family: sans-serif; font-weight: normal; fill: black;">14_P08835_2_RecName__Full=Albumin__Flags__Precursor__Sus_scrofa</text><text class="triangleText" dy=".35em" font-size="14px" style="fill-opacity: 1e-06; font-family: sans-serif;"></text><path d="M0,0L0,0L0,0L0,0"></path></g><g class="node" transform="translate(1490,729.6875)" id="node_4378" style="cursor: crosshair;"><circle class="node" r="4" style="fill: black;"></circle><rect class="node" y="-4px" x="-4px" width="0px" height="0px" style="stroke-width: 2px; stroke: black;"></rect><text x="13" dy=".3em" dx="-.3em" text-anchor="start" font-size="14px" style="fill-opacity: 1; font-family: sans-serif; font-weight: normal; fill: black;">12_P14639_1_RecName__Full=Albumin__Flags__Precursor__Ovis_aries</text><text class="triangleText" dy=".35em" font-size="14px" style="fill-opacity: 1e-06; font-family: sans-serif;"></text><path d="M0,0L0,0L0,0L0,0"></path></g><g class="node" transform="translate(1445.68212890625,671.3125)" id="node_5388" style="cursor: crosshair;"><circle class="node" r="4" style="fill: black;"></circle><rect class="node" y="-4px" x="-4px" width="0px" height="0px" style="stroke-width: 2px; stroke: black;"></rect><text x="13" dy=".3em" dx="-.3em" text-anchor="start" font-size="14px" style="fill-opacity: 1; font-family: sans-serif; font-weight: normal; fill: black;">11_P02769_4_RecName__Full=Albumin__AltName__Full=BSA__AltName__Allergen=Bos_d_6__Flags__Precursor__Bos_taurus</text><text class="triangleText" dy=".35em" font-size="14px" style="fill-opacity: 1e-06; font-family: sans-serif;"></text><path d="M0,0L0,0L0,0L0,0"></path></g><g class="node" transform="translate(1161.74755859375,700.5)" id="node_5378" style="cursor: crosshair;"><circle class="node" r="4" style="fill: black;"></circle><rect class="node" y="-4px" x="-4px" width="0px" height="0px" style="stroke-width: 2px; stroke: black;"></rect><text x="-13" dy="-.3em" dx=".3em" text-anchor="end" font-size="14px" style="fill-opacity: 1; font-family: sans-serif; font-weight: normal;"></text><text class="triangleText" dy=".35em" font-size="14px" style="fill-opacity: 1e-06; font-family: sans-serif;" x="0"></text><path d="M0,0L0,0L0,0L0,0"></path></g><g class="node" transform="translate(463.9294738769531,744.28125)" id="node_1171" style="cursor: crosshair;"><circle class="node" r="4" style="fill: black;"></circle><rect class="node" y="-4px" x="-4px" width="0px" height="0px" style="stroke-width: 2px; stroke: black;"></rect><text x="-13" dy="-.3em" dx=".3em" text-anchor="end" font-size="14px" style="fill-opacity: 1; font-family: sans-serif; font-weight: normal;"></text><text class="triangleText" dy=".35em" font-size="14px" style="fill-opacity: 1e-06; font-family: sans-serif;" x="0"></text><path d="M0,0L0,0L0,0L0,0"></path></g><g class="node" transform="translate(269.3817138671875,809.953125)" id="node_6121" style="cursor: crosshair;"><circle class="node" r="4" style="fill: black;"></circle><rect class="node" y="-4px" x="-4px" width="0px" height="0px" style="stroke-width: 2px; stroke: black;"></rect><text x="-13" dy="-.3em" dx=".3em" text-anchor="end" font-size="14px" style="fill-opacity: 1; font-family: sans-serif; font-weight: normal;"></text><text class="triangleText" dy=".35em" font-size="14px" style="fill-opacity: 1e-06; font-family: sans-serif;" x="0"></text><path d="M0,0L0,0L0,0L0,0"></path></g><g class="node" transform="translate(1087.3837890625,612.9375)" id="node_4106" style="cursor: crosshair;"><circle class="node" r="4" style="fill: black;"></circle><rect class="node" y="-4px" x="-4px" width="0px" height="0px" style="stroke-width: 2px; stroke: black;"></rect><text x="13" dy=".3em" dx="-.3em" text-anchor="start" font-size="14px" style="fill-opacity: 1; font-family: sans-serif; font-weight: normal; fill: black;">6_P49822_3_RecName__Full=Albumin__AltName__Allergen=Can_f_3__Flags__Precursor__Canis_lupus_familiaris</text><text class="triangleText" dy=".35em" font-size="14px" style="fill-opacity: 1e-06; font-family: sans-serif;"></text><path d="M0,0L0,0L0,0L0,0"></path></g><g class="node" transform="translate(955.181396484375,554.5625)" id="node_4571" style="cursor: crosshair;"><circle class="node" r="4" style="fill: black;"></circle><rect class="node" y="-4px" x="-4px" width="0px" height="0px" style="stroke-width: 2px; stroke: black;"></rect><text x="13" dy=".3em" dx="-.3em" text-anchor="start" font-size="14px" style="fill-opacity: 1; font-family: sans-serif; font-weight: normal; fill: black;">5_P49064_1_RecName__Full=Albumin__AltName__Allergen=Fel_d_2__Flags__Precursor__Felis_catus</text><text class="triangleText" dy=".35em" font-size="14px" style="fill-opacity: 1e-06; font-family: sans-serif;"></text><path d="M0,0L0,0L0,0L0,0"></path></g><g class="node" transform="translate(463.9294738769531,583.75)" id="node_3288" style="cursor: crosshair;"><circle class="node" r="4" style="fill: black;"></circle><rect class="node" y="-4px" x="-4px" width="0px" height="0px" style="stroke-width: 2px; stroke: black;"></rect><text x="-13" dy="-.3em" dx=".3em" text-anchor="end" font-size="14px" style="fill-opacity: 1; font-family: sans-serif; font-weight: normal;"></text><text class="triangleText" dy=".35em" font-size="14px" style="fill-opacity: 1e-06; font-family: sans-serif;" x="0"></text><path d="M0,0L0,0L0,0L0,0"></path></g><g class="node" transform="translate(198.02247619628906,696.8515625)" id="node_4233" style="cursor: crosshair;"><circle class="node" r="4" style="fill: black;"></circle><rect class="node" y="-4px" x="-4px" width="0px" height="0px" style="stroke-width: 2px; stroke: black;"></rect><text x="-13" dy="-.3em" dx=".3em" text-anchor="end" font-size="14px" style="fill-opacity: 1; font-family: sans-serif; font-weight: normal;"></text><text class="triangleText" dy=".35em" font-size="14px" style="fill-opacity: 1e-06; font-family: sans-serif;" x="0"></text><path d="M0,0L0,0L0,0L0,0"></path></g><g class="node" transform="translate(928.1400146484375,496.1875)" id="node_9669" style="cursor: crosshair;"><circle class="node" r="4" style="fill: black;"></circle><rect class="node" y="-4px" x="-4px" width="0px" height="0px" style="stroke-width: 2px; stroke: black;"></rect><text x="13" dy=".3em" dx="-.3em" text-anchor="start" font-size="14px" style="fill-opacity: 1; font-family: sans-serif; font-weight: normal; fill: black;">4_Q28522_1_RecName__Full=Albumin__Flags__Precursor__Macaca_mulatta</text><text class="triangleText" dy=".35em" font-size="14px" style="fill-opacity: 1e-06; font-family: sans-serif;"></text><path d="M0,0L0,0L0,0L0,0"></path></g><g class="node" transform="translate(928.1400146484375,437.8125)" id="node_6765" style="cursor: crosshair;"><circle class="node" r="4" style="fill: black;"></circle><rect class="node" y="-4px" x="-4px" width="0px" height="0px" style="stroke-width: 2px; stroke: black;"></rect><text x="13" dy=".3em" dx="-.3em" text-anchor="start" font-size="14px" style="fill-opacity: 1; font-family: sans-serif; font-weight: normal; fill: black;">3_A2V9Z4_1_RecName__Full=Albumin__Flags__Precursor__Macaca_fascicularis</text><text class="triangleText" dy=".35em" font-size="14px" style="fill-opacity: 1e-06; font-family: sans-serif;"></text><path d="M0,0L0,0L0,0L0,0"></path></g><g class="node" transform="translate(928.1400146484375,467)" id="node_1748" style="cursor: crosshair;"><circle class="node" r="4" style="fill: black;"></circle><rect class="node" y="-4px" x="-4px" width="0px" height="0px" style="stroke-width: 2px; stroke: black;"></rect><text x="-13" dy="-.3em" dx=".3em" text-anchor="end" font-size="14px" style="fill-opacity: 1; font-family: sans-serif; font-weight: normal;"></text><text class="triangleText" dy=".35em" font-size="14px" style="fill-opacity: 1e-06; font-family: sans-serif;" x="0"></text><path d="M0,0L0,0L0,0L0,0"></path></g><g class="node" transform="translate(1001.0015258789062,379.4375)" id="node_1065" style="cursor: crosshair;"><circle class="node" r="4" style="fill: rgb(102, 255, 102);"></circle><rect class="node" y="-4px" x="-4px" width="0px" height="0px" style="stroke-width: 2px; stroke: black;"></rect><text x="13" dy=".3em" dx="-.3em" text-anchor="start" font-size="14px" style="fill-opacity: 1; font-family: sans-serif; font-weight: bold; fill: rgb(102, 255, 102);">2_Q5NVH5_2_RecName__Full=Albumin__Flags__Precursor__Pongo_abelii</text><text class="triangleText" dy=".35em" font-size="14px" style="fill-opacity: 1e-06; font-family: sans-serif;"></text><path d="M0,0L0,0L0,0L0,0"></path></g><g class="node" transform="translate(977.7158813476562,321.0625)" id="node_7689" style="cursor: crosshair;"><circle class="node" r="4" style="fill: black;"></circle><rect class="node" y="-4px" x="-4px" width="0px" height="0px" style="stroke-width: 2px; stroke: black;"></rect><text x="13" dy=".3em" dx="-.3em" text-anchor="start" font-size="14px" style="fill-opacity: 1; font-family: sans-serif; font-weight: normal; fill: black;">1_P02768_2_RecName__Full=Albumin__Flags__Precursor__Homo_sapiens</text><text class="triangleText" dy=".35em" font-size="14px" style="fill-opacity: 1e-06; font-family: sans-serif;"></text><path d="M0,0L0,0L0,0L0,0"></path></g><g class="node" transform="translate(1310.4752197265625,262.6875)" id="node_5495" style="cursor: crosshair;"><circle class="node" r="4" style="fill: black;"></circle><rect class="node" y="-4px" x="-4px" width="0px" height="0px" style="stroke-width: 2px; stroke: black;"></rect><text x="13" dy=".3em" dx="-.3em" text-anchor="start" font-size="14px" style="fill-opacity: 1; font-family: sans-serif; font-weight: normal; fill: black;">10_P49065_2_RecName__Full=Albumin__Flags__Precursor__Oryctolagus_cuniculus</text><text class="triangleText" dy=".35em" font-size="14px" style="fill-opacity: 1e-06; font-family: sans-serif;"></text><path d="M0,0L0,0L0,0L0,0"></path></g><g class="node" transform="translate(1483.9908447265625,204.3125)" id="node_3364" style="cursor: crosshair;"><circle class="node" r="4" style="fill: black;"></circle><rect class="node" y="-4px" x="-4px" width="0px" height="0px" style="stroke-width: 2px; stroke: black;"></rect><text x="13" dy=".3em" dx="-.3em" text-anchor="start" font-size="14px" style="fill-opacity: 1; font-family: sans-serif; font-weight: normal; fill: black;">16_O35090_1_RecName__Full=Albumin__Flags__Precursor__Meriones_unguiculatus</text><text class="triangleText" dy=".35em" font-size="14px" style="fill-opacity: 1e-06; font-family: sans-serif;"></text><path d="M0,0L0,0L0,0L0,0"></path></g><g class="node" transform="translate(1490,145.9375)" id="node_1348" style="cursor: crosshair;"><circle class="node" r="4" style="fill: black;"></circle><rect class="node" y="-4px" x="-4px" width="0px" height="0px" style="stroke-width: 2px; stroke: black;"></rect><text x="13" dy=".3em" dx="-.3em" text-anchor="start" font-size="14px" style="fill-opacity: 1; font-family: sans-serif; font-weight: normal; fill: black;">15_P07724_3_RecName__Full=Albumin__Flags__Precursor__Mus_musculus</text><text class="triangleText" dy=".35em" font-size="14px" style="fill-opacity: 1e-06; font-family: sans-serif;"></text><path d="M0,0L0,0L0,0L0,0"></path></g><g class="node" transform="translate(1361.5533447265625,87.5625)" id="node_8734" style="cursor: crosshair;"><circle class="node" r="4" style="fill: black;"></circle><rect class="node" y="-4px" x="-4px" width="0px" height="0px" style="stroke-width: 2px; stroke: black;"></rect><text x="13" dy=".3em" dx="-.3em" text-anchor="start" font-size="14px" style="fill-opacity: 1; font-family: sans-serif; font-weight: normal; fill: black;">13_P02770_2_RecName__Full=Albumin__Flags__Precursor__Rattus_norvegicus</text><text class="triangleText" dy=".35em" font-size="14px" style="fill-opacity: 1e-06; font-family: sans-serif;"></text><path d="M0,0L0,0L0,0L0,0"></path></g><g class="node" transform="translate(1015.2733764648438,116.75)" id="node_1333" style="cursor: crosshair;"><circle class="node" r="4" style="fill: black;"></circle><rect class="node" y="-4px" x="-4px" width="0px" height="0px" style="stroke-width: 2px; stroke: black;"></rect><text x="-13" dy="-.3em" dx=".3em" text-anchor="end" font-size="14px" style="fill-opacity: 1; font-family: sans-serif; font-weight: normal;"></text><text class="triangleText" dy=".35em" font-size="14px" style="fill-opacity: 1e-06; font-family: sans-serif;" x="0"></text><path d="M0,0L0,0L0,0L0,0"></path></g><g class="node" transform="translate(710.3065795898438,160.53125)" id="node_9353" style="cursor: crosshair;"><circle class="node" r="4" style="fill: black;"></circle><rect class="node" y="-4px" x="-4px" width="0px" height="0px" style="stroke-width: 2px; stroke: black;"></rect><text x="-13" dy="-.3em" dx=".3em" text-anchor="end" font-size="14px" style="fill-opacity: 1; font-family: sans-serif; font-weight: normal;"></text><text class="triangleText" dy=".35em" font-size="14px" style="fill-opacity: 1e-06; font-family: sans-serif;" x="0"></text><path d="M0,0L0,0L0,0L0,0"></path></g><g class="node" transform="translate(1216.58154296875,29.1875)" id="node_6897" style="cursor: crosshair;"><circle class="node" r="4" style="fill: black;"></circle><rect class="node" y="-4px" x="-4px" width="0px" height="0px" style="stroke-width: 2px; stroke: black;"></rect><text x="13" dy=".3em" dx="-.3em" text-anchor="start" font-size="14px" style="fill-opacity: 1; font-family: sans-serif; font-weight: normal; fill: black;">7_A6YF56_1_RecName__Full=Albumin__Flags__Precursor__Mesocricetus_auratus</text><text class="triangleText" dy=".35em" font-size="14px" style="fill-opacity: 1e-06; font-family: sans-serif;"></text><path d="M0,0L0,0L0,0L0,0"></path></g><g class="node" transform="translate(592.3760986328125,94.859375)" id="node_8879" style="cursor: crosshair;"><circle class="node" r="4" style="fill: black;"></circle><rect class="node" y="-4px" x="-4px" width="0px" height="0px" style="stroke-width: 2px; stroke: black;"></rect><text x="-13" dy="-.3em" dx=".3em" text-anchor="end" font-size="14px" style="fill-opacity: 1; font-family: sans-serif; font-weight: normal;"></text><text class="triangleText" dy=".35em" font-size="14px" style="fill-opacity: 1e-06; font-family: sans-serif;" x="0"></text><path d="M0,0L0,0L0,0L0,0"></path></g><g class="node" transform="translate(33.520694732666016,178.7734375)" id="node_1905" style="cursor: crosshair;"><circle class="node" r="4" style="fill: black;"></circle><rect class="node" y="-4px" x="-4px" width="0px" height="0px" style="stroke-width: 2px; stroke: black;"></rect><text x="-13" dy="-.3em" dx=".3em" text-anchor="end" font-size="14px" style="fill-opacity: 1; font-family: sans-serif; font-weight: normal;"></text><text class="triangleText" dy=".35em" font-size="14px" style="fill-opacity: 1e-06; font-family: sans-serif;" x="0"></text><path d="M0,0L0,0L0,0L0,0"></path></g><g class="node" transform="translate(20,365.755859375)" id="node_5745" style="cursor: crosshair;"><circle class="node" r="4" style="fill: black;"></circle><rect class="node" y="-4px" x="-4px" width="0px" height="0px" style="stroke-width: 2px; stroke: black;"></rect><text x="-13" dy="-.3em" dx=".3em" text-anchor="end" font-size="14px" style="fill-opacity: 1; font-family: sans-serif; font-weight: normal;"></text><text class="triangleText" dy=".35em" font-size="14px" style="fill-opacity: 1e-06; font-family: sans-serif;" x="0"></text><path d="M0,0L0,0L0,0L0,0"></path></g><g class="node" transform="translate(134.1747589111328,552.73828125)" id="node_2101" style="cursor: crosshair;"><circle class="node" r="4" style="fill: black;"></circle><rect class="node" y="-4px" x="-4px" width="0px" height="0px" style="stroke-width: 2px; stroke: black;"></rect><text x="-13" dy="-.3em" dx=".3em" text-anchor="end" font-size="14px" style="fill-opacity: 1; font-family: sans-serif; font-weight: normal;"></text><text class="triangleText" dy=".35em" font-size="14px" style="fill-opacity: 1e-06; font-family: sans-serif;" x="0"></text><path d="M0,0L0,0L0,0L0,0"></path></g><g class="node" transform="translate(693.0301513671875,408.625)" id="node_6588" style="cursor: crosshair;"><circle class="node" r="4" style="fill: black;"></circle><rect class="node" y="-4px" x="-4px" width="0px" height="0px" style="stroke-width: 2px; stroke: black;"></rect><text x="-13" dy="-.3em" dx=".3em" text-anchor="end" font-size="14px" style="fill-opacity: 1; font-family: sans-serif; font-weight: normal;"></text><text class="triangleText" dy=".35em" font-size="14px" style="fill-opacity: 1e-06; font-family: sans-serif;" x="0"></text><path d="M0,0L0,0L0,0L0,0"></path></g><g class="node" transform="translate(931.1445922851562,350.25)" id="node_2787" style="cursor: crosshair;"><circle class="node" r="4" style="fill: black;"></circle><rect class="node" y="-4px" x="-4px" width="0px" height="0px" style="stroke-width: 2px; stroke: black;"></rect><text x="-13" dy="-.3em" dx=".3em" text-anchor="end" font-size="14px" style="fill-opacity: 1; font-family: sans-serif; font-weight: normal;"></text><text class="triangleText" dy=".35em" font-size="14px" style="fill-opacity: 1e-06; font-family: sans-serif;" x="0"></text><path d="M0,0L0,0L0,0L0,0"></path></g></g></svg>