<?xml version="1.0" encoding="iso-8859-1"?>
<!DOCTYPE svg PUBLIC "-//W3C//DTD SVG 1.0//EN" "http://www.w3.org/TR/2001/REC-SVG-20010904/DTD/svg10.dtd">
<svg width="1520" height="959" xmlns="http://www.w3.org/2000/svg" xmlns:xlink="http://www.w3.org/1999/xlink">
<g style="stroke:black;fill:lightgreen" transform="translate(30,30)">
<line x1="172" y1="593" x2="172" y2="657" style="stroke:blue; stroke-width:1"/>
<line x1="172" y1="657" x2="651" y2="657" style="stroke:blue; stroke-width:1"/>
<line x1="172" y1="593" x2="172" y2="529" style="stroke:blue; stroke-width:1"/>
<line x1="172" y1="529" x2="701" y2="529" style="stroke:blue; stroke-width:1"/>
<line x1="78" y1="689" x2="78" y2="785" style="stroke:blue; stroke-width:1"/>
<line x1="78" y1="785" x2="857" y2="785" style="stroke:blue; stroke-width:1"/>
<line x1="16" y1="686" x2="16" y2="913" style="stroke:blue; stroke-width:1"/>
<line x1="16" y1="913" x2="396" y2="913" style="stroke:blue; stroke-width:1"/>
<line x1="633" y1="80" x2="633" y2="144" style="stroke:blue; stroke-width:1"/>
<line x1="633" y1="144" x2="887" y2="144" style="stroke:blue; stroke-width:1"/>
<line x1="633" y1="80" x2="633" y2="16" style="stroke:blue; stroke-width:1"/>
<line x1="633" y1="16" x2="1354" y2="16" style="stroke:blue; stroke-width:1"/>
<line x1="251" y1="176" x2="251" y2="272" style="stroke:blue; stroke-width:1"/>
<line x1="251" y1="272" x2="589" y2="272" style="stroke:blue; stroke-width:1"/>
<line x1="134" y1="288" x2="134" y2="400" style="stroke:blue; stroke-width:1"/>
<line x1="134" y1="400" x2="624" y2="400" style="stroke:blue; stroke-width:1"/>
<line x1="78" y1="689" x2="78" y2="593" style="stroke:blue; stroke-width:1"/>
<line x1="78" y1="593" x2="172" y2="593" style="stroke:blue; stroke-width:1"/>
<line x1="16" y1="686" x2="16" y2="689" style="stroke:blue; stroke-width:1"/>
<line x1="16" y1="689" x2="78" y2="689" style="stroke:blue; stroke-width:1"/>
<line x1="251" y1="176" x2="251" y2="80" style="stroke:blue; stroke-width:1"/>
<line x1="251" y1="80" x2="633" y2="80" style="stroke:blue; stroke-width:1"/>
<line x1="134" y1="288" x2="134" y2="176" style="stroke:blue; stroke-width:1"/>
<line x1="134" y1="176" x2="251" y2="176" style="stroke:blue; stroke-width:1"/>
<line x1="16" y1="686" x2="16" y2="288" style="stroke:blue; stroke-width:1"/>
<line x1="16" y1="288" x2="134" y2="288" style="stroke:blue; stroke-width:1"/>
<text x="400" y="920" font-weight = "10" font-family="verdana" fill="black" font-size="18">Streptococcus</text>
<text x="861" y="792" font-weight = "10" font-family="verdana" fill="black" font-size="18">Variolavirus</text>
<text x="655" y="664" font-weight = "10" font-family="verdana" fill="black" font-size="18">Lactococcus</text>
<text x="705" y="536" font-weight = "10" font-family="verdana" fill="black" font-size="18">Cellulophaga</text>
<text x="628" y="407" font-weight = "10" font-family="verdana" fill="black" font-size="18">Coronavirus</text>
<text x="593" y="279" font-weight = "10" font-family="verdana" fill="black" font-size="18">Escherichia</text>
<text x="891" y="151" font-weight = "10" font-family="verdana" fill="black" font-size="18">Adenovirus</text>
<text x="1358" y="23" font-weight = "10" font-family="verdana" fill="black" font-size="18">Herpesvirus</text>
</g></svg>